<?xml version="1.0" encoding="utf-8"?><svg version="1.1" id="Layer_1" xmlns="http://www.w3.org/2000/svg" xmlns:xlink="http://www.w3.org/1999/xlink" x="0px" y="0px" viewBox="0 0 99.23 122.88" style="enable-background:new 0 0 99.23 122.88" xml:space="preserve"><g><path d="M38.5,64.08c-0.06,4.57-0.61,9.25-1.66,14.05c-1.11,5.08-2.78,10.29-5,15.63c-2.23,5.34-4.83,10.41-7.82,15.22 c-2.98,4.8-6.35,9.34-10.11,13.63c-0.16,0.18-0.38,0.27-0.6,0.27l-12.52,0c-0.44,0-0.8-0.36-0.8-0.8c0-0.24,0.11-0.46,0.28-0.6 c8.37-8.86,14.65-18.14,18.85-27.84c4.08-9.45,6.18-19.31,6.28-29.56H1.6c-0.44,0-0.8-0.36-0.8-0.8v-8.63c0-0.44,0.36-0.8,0.8-0.8 h23.76c-0.61-8.85-2.94-17.58-7-26.19C14.15,18.76,8.11,9.99,0.21,1.34c-0.3-0.33-0.27-0.83,0.05-1.13C0.42,0.07,0.61,0,0.8,0 L12.7,0c0.26,0,0.49,0.12,0.64,0.31c7.33,7.85,13.09,16.29,17.29,25.32c4.11,8.84,6.71,18.25,7.8,28.22H60.8 c1.1-9.97,3.7-19.38,7.8-28.22c4.2-9.05,9.98-17.51,17.34-25.38C86.1,0.09,86.32,0,86.53,0v0h11.91c0.44,0,0.8,0.36,0.8,0.8 c0,0.22-0.09,0.42-0.24,0.57c-7.88,8.64-13.92,17.41-18.12,26.3c-4.06,8.61-6.4,17.34-7,26.19h23.76c0.44,0,0.8,0.36,0.8,0.8v8.63 c0,0.44-0.36,0.8-0.8,0.8h-23.8c0.1,10.26,2.2,20.11,6.28,29.56c4.2,9.72,10.5,19.02,18.9,27.89c0.3,0.32,0.29,0.82-0.03,1.12 c-0.15,0.15-0.35,0.22-0.55,0.22v0H85.91c-0.26,0-0.5-0.13-0.64-0.32c-3.74-4.27-7.1-8.8-10.07-13.58 c-2.99-4.81-5.59-9.88-7.82-15.22c-2.22-5.34-3.89-10.55-5-15.63c-1.05-4.8-1.61-9.49-1.67-14.05H38.5L38.5,64.08z"/></g></svg>